<svg width="213" height="212" viewBox="0 0 213 212" fill="none" xmlns="http://www.w3.org/2000/svg">
<path d="M212.054 62.7467V180.661C212.054 188.958 208.755 196.915 202.884 202.782C197.012 208.649 189.048 211.945 180.744 211.945H31.421C23.1172 211.945 15.1534 208.649 9.28173 202.782C3.41002 196.915 0.111328 188.958 0.111328 180.661V62.7467H212.054ZM55.4187 139.762C52.2249 139.762 49.162 141.03 46.9036 143.286C44.6453 145.542 43.3765 148.603 43.3765 151.794C43.3765 154.985 44.6453 158.046 46.9036 160.302C49.162 162.558 52.2249 163.826 55.4187 163.826C58.6125 163.826 61.6755 162.558 63.9338 160.302C66.1922 158.046 67.4609 154.985 67.4609 151.794C67.4609 148.603 66.1922 145.542 63.9338 143.286C61.6755 141.03 58.6125 139.762 55.4187 139.762ZM106.044 139.762C102.85 139.762 99.7874 141.03 97.529 143.286C95.2707 145.542 94.0019 148.603 94.0019 151.794C94.0019 154.985 95.2707 158.046 97.529 160.302C99.7874 162.558 102.85 163.826 106.044 163.826C109.238 163.826 112.301 162.558 114.559 160.302C116.818 158.046 118.086 154.985 118.086 151.794C118.086 148.603 116.818 145.542 114.559 143.286C112.301 141.03 109.238 139.762 106.044 139.762ZM55.4187 91.6334C52.2249 91.6334 49.162 92.9011 46.9036 95.1575C44.6453 97.414 43.3765 100.474 43.3765 103.666C43.3765 106.857 44.6453 109.917 46.9036 112.174C49.162 114.43 52.2249 115.698 55.4187 115.698C58.6125 115.698 61.6755 114.43 63.9338 112.174C66.1922 109.917 67.4609 106.857 67.4609 103.666C67.4609 100.474 66.1922 97.414 63.9338 95.1575C61.6755 92.9011 58.6125 91.6334 55.4187 91.6334ZM106.044 91.6334C102.85 91.6334 99.7874 92.9011 97.529 95.1575C95.2707 97.414 94.0019 100.474 94.0019 103.666C94.0019 106.857 95.2707 109.917 97.529 112.174C99.7874 114.43 102.85 115.698 106.044 115.698C109.238 115.698 112.301 114.43 114.559 112.174C116.818 109.917 118.086 106.857 118.086 103.666C118.086 100.474 116.818 97.414 114.559 95.1575C112.301 92.9011 109.238 91.6334 106.044 91.6334ZM156.66 91.6334C153.466 91.6334 150.403 92.9011 148.145 95.1575C145.886 97.414 144.618 100.474 144.618 103.666C144.618 106.857 145.886 109.917 148.145 112.174C150.403 114.43 153.466 115.698 156.66 115.698C159.854 115.698 162.917 114.43 165.175 112.174C167.433 109.917 168.702 106.857 168.702 103.666C168.702 100.474 167.433 97.414 165.175 95.1575C162.917 92.9011 159.854 91.6334 156.66 91.6334ZM180.744 0.179688C189.048 0.179688 197.012 3.47562 202.884 9.34241C208.755 15.2092 212.054 23.1663 212.054 31.4632V48.3082H0.111328V31.4632C0.111328 23.1663 3.41002 15.2092 9.28173 9.34241C15.1534 3.47562 23.1172 0.179688 31.421 0.179688H180.744Z" fill="#FFF7E6"/>
</svg>
